<svg width="400" height="340" viewBox="0 0 400 340" xmlns="http://www.w3.org/2000/svg">
<title>State 2b - Codes also ready</title>
<rect id="artboard-bg" width="400" height="340" fill="#FAFAF6"/>
<g id="notification-card">
<rect id="card-bg" x="40" y="20" width="320" height="300" rx="12" fill="#FFFFFF" stroke="#E5E4DF" stroke-width="0.5"/>
<g id="logo">
  <rect x="56" y="36" width="32" height="16" rx="2" fill="#E5E4DF"/>
  <text x="72" y="47" text-anchor="middle" font-family="JetBrains Mono, monospace" font-size="7" fill="#999999" letter-spacing="0.6">LOGO</text>
</g>
<text id="dismiss-x" x="344" y="52" text-anchor="end" font-family="Inter, -apple-system, sans-serif" font-size="18" fill="#9A958A">×</text>
<text id="eyebrow" x="56" y="92" font-family="Inter, -apple-system, sans-serif" font-size="13" fill="#5A5A55">Earn rewards on this order</text>
<text id="hero-amount" x="56" y="124" font-family="Inter, -apple-system, sans-serif" font-size="26" font-weight="500" fill="#004977">Up to 30% back</text>
<text id="hero-detail" x="56" y="148" font-family="Inter, -apple-system, sans-serif" font-size="13" fill="#5A5A55">on eligible items at Sephora</text>
<text id="exclusions" x="56" y="168" font-family="Inter, -apple-system, sans-serif" font-size="13" fill="#9A958A" text-decoration="underline">Exclusions apply</text>
<g id="codes-signal">
  <rect x="54" y="187" width="8" height="11" rx="1.5" stroke="#5A5A55" stroke-width="1.25" fill="none"/>
  <circle cx="58" cy="189" r="1" fill="#5A5A55"/>
  <text x="74" y="199" font-family="Inter, -apple-system, sans-serif" font-size="13" fill="#5A5A55">5 codes ready to try</text>
</g>
<g id="social-proof">
  <path d="M 56 213 a 3 3 0 1 1 6 0 a 3 3 0 1 1 -6 0 M 52 223 q 0 -5 7 -5 q 7 0 7 5" stroke="#5A5A55" stroke-width="1.25" fill="none" stroke-linecap="round"/>
  <text x="74" y="223" font-family="Inter, -apple-system, sans-serif" font-size="13" fill="#5A5A55">1,842 shoppers saved here today</text>
</g>
<g id="primary-cta">
  <rect x="56" y="240" width="288" height="44" rx="22" fill="#004977"/>
  <text x="200.0" y="267" text-anchor="middle" font-family="Inter, -apple-system, sans-serif" font-size="13" font-weight="500" fill="#FFFFFF">Try codes + activate rewards</text>
</g>
<text id="secondary-cta" x="200.0" y="316" text-anchor="middle" font-family="Inter, -apple-system, sans-serif" font-size="13" fill="#5A5A55">Just activate rewards</text>
</g>
</svg>