<svg width="400" height="380" viewBox="0 0 400 380" xmlns="http://www.w3.org/2000/svg">
  <title>State 3c - Testing codes</title>
  <rect width="400" height="380" fill="#FAFAF6"/>
  <g id="notification-card">
    <rect x="40" y="20" width="320" height="340" rx="12" fill="#FFFFFF" stroke="#E5E4DF" stroke-width="0.5"/>
<g id="logo">
<rect x="56" y="36" width="32" height="16" rx="2" fill="#E5E4DF"/>
<text x="72" y="47" text-anchor="middle" font-family="JetBrains Mono, monospace" font-size="7" fill="#999999" letter-spacing="0.6">LOGO</text>
</g>
<g id="lifetime">
<text x="344" y="46" text-anchor="end" font-family="Inter, -apple-system, sans-serif" font-size="13" font-weight="500" fill="#0066CC">$792</text>
<text x="344" y="58" text-anchor="end" font-family="Inter, -apple-system, sans-serif" font-size="10" fill="#5A5A55">Lifetime Savings</text>
</g>
<rect x="56" y="76" width="288" height="48" rx="8" fill="#F5F4EF"/>
<circle cx="80" cy="100" r="10" fill="none" stroke="#E5E4DF" stroke-width="2"/>
<path d="M 80 90 A 10 10 0 0 1 90 100" fill="none" stroke="#004977" stroke-width="2" stroke-linecap="round"/>
<text x="100" y="96" font-family="Inter, -apple-system, sans-serif" font-size="12" font-weight="500" fill="#1A1A1A">Testing code 2 of 5&#8230;</text>
<text x="100" y="112" font-family="Inter, -apple-system, sans-serif" font-size="11" fill="#5A5A55">Usually ~2 seconds</text>
<text x="60" y="148" font-family="Inter, -apple-system, sans-serif" font-size="14" fill="#00875A">&#10003;</text>
<text x="80" y="148" font-family="JetBrains Mono, monospace" font-size="11" fill="#1A1A1A">BROWSHADE</text>
<text x="328" y="148" text-anchor="end" font-family="Inter, -apple-system, sans-serif" font-size="10" fill="#5A5A55">tested</text>
<rect x="56" y="159" width="288" height="22" rx="4" fill="#F5F4EF"/>
<circle cx="70" cy="168" r="5" fill="none" stroke="#004977" stroke-width="2"/>
<path d="M 70 163 A 5 5 0 0 1 75 168" fill="none" stroke="#004977" stroke-width="2"/>
<text x="84" y="172" font-family="JetBrains Mono, monospace" font-size="11" font-weight="500" fill="#004977">HAIRYOUTH</text>
<circle cx="65" cy="192" r="5" fill="none" stroke="#E5E4DF" stroke-width="1"/>
<text x="80" y="196" font-family="JetBrains Mono, monospace" font-size="11" fill="#9A958A">FRESHLOOK</text>
<circle cx="65" cy="216" r="5" fill="none" stroke="#E5E4DF" stroke-width="1"/>
<text x="80" y="220" font-family="JetBrains Mono, monospace" font-size="11" fill="#9A958A">BEAUTY10</text>
<circle cx="65" cy="240" r="5" fill="none" stroke="#E5E4DF" stroke-width="1"/>
<text x="80" y="244" font-family="JetBrains Mono, monospace" font-size="11" fill="#9A958A">SPRING25</text>
<line x1="56" y1="260" x2="344" y2="260" stroke="#E5E4DF" stroke-width="0.5"/>
<text x="60" y="282" font-family="Inter, -apple-system, sans-serif" font-size="14" fill="#00875A">&#10003;</text>
<text x="80" y="282" font-family="Inter, -apple-system, sans-serif" font-size="11" fill="#5A5A55"><tspan fill="#1A1A1A" font-weight="500">$3.64 rewards</tspan> already locked in</text>
  </g>
</svg>